<svg xmlns="http://www.w3.org/2000/svg" viewBox="0 0 400 300" data-imageid="banker-outline" imageName="Banker" class="illustrations_image" style="width: 151px;"><g id="_372_banker_outline" data-name="#372_banker_outline"><rect x="175.4" y="162.33" width="69.16" height="79.6" fill="#093f68"/><path d="M244.56,242.93H175.4a1,1,0,0,1-1-1v-79.6a1,1,0,0,1,1-1h69.16a1,1,0,0,1,1,1v79.6A1,1,0,0,1,244.56,242.93Zm-68.16-2h67.16v-77.6H176.4Z" fill="#093f68"/><path d="M235.16,162.33v8A25.16,25.16,0,0,1,210,195.55a25.64,25.64,0,0,1-5.07-.51,25.17,25.17,0,0,1-20.1-24.67v-8Z" fill="#9bd2ff" class="target-color"/><path d="M210,196.55a26.92,26.92,0,0,1-5.27-.53,26.16,26.16,0,0,1-20.9-25.65v-8a1,1,0,0,1,1-1h50.35a1,1,0,0,1,1,1v8A26.19,26.19,0,0,1,210,196.55Zm-24.17-33.22v7a24.19,24.19,0,0,0,19.3,23.69,24.42,24.42,0,0,0,10.22-.11,24,24,0,0,0,18.83-23.58v-7Z" fill="#093f68"/><path d="M203.43,156.38h13.1a0,0,0,0,1,0,0v7.54a5.56,5.56,0,0,1-5.56,5.56h-2a5.56,5.56,0,0,1-5.56-5.56v-7.54A0,0,0,0,1,203.43,156.38Z" fill="#ffc9b0"/><path d="M211,170.47h-2a6.57,6.57,0,0,1-6.56-6.56v-7.53a1,1,0,0,1,1-1h13.1a1,1,0,0,1,1,1v7.53A6.56,6.56,0,0,1,211,170.47Zm-6.54-13.09v6.53a4.56,4.56,0,0,0,4.56,4.56h2a4.56,4.56,0,0,0,4.56-4.56v-6.53Z" fill="#093f68"/><path d="M163.89,125.36c-.63,0-3.44-15.78-3.79-17.31-1.65-7.34-4.15-15.13-2.7-22.58a20.48,20.48,0,0,1,2.92-8c1.65-2.34,4.38-4.1,7.23-3.87-.62,0,3.58-7.91,4.15-8.54A64.43,64.43,0,0,1,179,58.81a42.85,42.85,0,0,1,20.24-8.31,64.47,64.47,0,0,1,35,4.81c8.23,3.59,15.87,9,20.93,16.38,10.31,15.12,4.28,35.81,1.33,52.45l-8.12-1.42Z" fill="#725858"/><path d="M163.77,126.36c-1,0-1.33-.66-4.1-15.26-.27-1.43-.47-2.49-.55-2.83-.26-1.18-.55-2.37-.84-3.56-1.53-6.38-3.12-13-1.87-19.43a21.51,21.51,0,0,1,3.09-8.38,9.68,9.68,0,0,1,7.23-4.31c.88-2.74,4.19-8.14,4.23-8.19A52.71,52.71,0,0,1,177.12,59l1.25-1a43.54,43.54,0,0,1,20.71-8.52,64.92,64.92,0,0,1,35.54,4.89c9.25,4,16.64,9.82,21.35,16.72,9.21,13.5,5.78,31.05,2.76,46.53-.45,2.28-.88,4.51-1.27,6.66a1,1,0,0,1-1.15.81l-8-1.4-84.36,2.64h-.15Zm.12-1h0Zm3.18-50.77a7.65,7.65,0,0,0-5.93,3.46,19.52,19.52,0,0,0-2.76,7.62c-1.18,6,.36,12.4,1.85,18.57.29,1.2.58,2.4.85,3.59.07.35.28,1.43.56,2.9.62,3.26,2.18,11.49,2.85,13.61l83.83-2.62h.21l7.14,1.25c.34-1.86.71-3.77,1.09-5.71,2.95-15.1,6.3-32.21-2.44-45-4.5-6.6-11.59-12.14-20.5-16a63.8,63.8,0,0,0-34.44-4.74,41.56,41.56,0,0,0-19.77,8.11l-1.25,1a50.17,50.17,0,0,0-5.92,5.17,55.64,55.64,0,0,0-3.92,7.63,1,1,0,0,1,0,.3,1,1,0,0,1-1.07.92h-.4Z" fill="#093f68"/><ellipse cx="172.56" cy="125.36" rx="12.72" ry="10.96" fill="#ffc9b0"/><path d="M172.56,137.32c-7.57,0-13.73-5.36-13.73-12s6.16-12,13.73-12,13.72,5.37,13.72,12S180.12,137.32,172.56,137.32Zm0-21.93c-6.47,0-11.73,4.47-11.73,10s5.26,10,11.73,10,11.72-4.47,11.72-10S179,115.39,172.56,115.39Z" fill="#093f68"/><ellipse cx="246.73" cy="125.36" rx="12.72" ry="10.96" fill="#ffc9b0"/><path d="M246.73,137.32c-7.57,0-13.72-5.36-13.72-12s6.15-12,13.72-12,13.73,5.37,13.73,12S254.3,137.32,246.73,137.32Zm0-21.93c-6.46,0-11.72,4.47-11.72,10s5.26,10,11.72,10,11.73-4.47,11.73-10S253.2,115.39,246.73,115.39Z" fill="#093f68"/><path d="M210,161.09a38.36,38.36,0,0,1-38.24-35.22c-1.06-12.77-1.86-25.34,3.65-37.37,10.76,2.93,21.79,5.17,32.94,5.41s22.49-1.59,32.52-6.5A72.65,72.65,0,0,1,247.5,105c1.42,6.06.86,11.55.86,17.7A38.37,38.37,0,0,1,210,161.09Z" fill="#ffc9b0"/><path d="M210,162.09h0a39.87,39.87,0,0,1-32.82-17.61A39.4,39.4,0,0,1,170.74,126c-1-11.79-2.08-25.16,3.74-37.86a1,1,0,0,1,1.17-.55c12.75,3.46,23.14,5.17,32.7,5.37,12.07.27,22.85-1.89,32.06-6.39a1,1,0,0,1,1.32.42,73.17,73.17,0,0,1,6.74,17.85c1.14,4.82,1,9.22.94,13.89,0,1.32,0,2.66,0,4A39.42,39.42,0,0,1,210,162.09Zm-34-72.4c-4.82,11.08-4.34,22.45-3.22,36.09a37.38,37.38,0,0,0,74.63-3.06c0-1.39,0-2.75,0-4.09.1-4.53.19-8.81-.88-13.38a71.62,71.62,0,0,0-6.12-16.52c-9.3,4.36-20.08,6.44-32.1,6.18C198.79,94.71,188.49,93.05,176,89.69Z" fill="#093f68"/><circle cx="192.22" cy="117.14" r="3.55" fill="#093f68"/><circle cx="228.86" cy="117.14" r="3.55" fill="#093f68"/><path d="M210,147.24c-8.27,0-15-4.9-15-10.92a1,1,0,0,1,2,0c0,4.92,5.83,8.92,13,8.92s13-4,13-8.92a1,1,0,0,1,2,0C225,142.34,218.25,147.24,210,147.24Z" fill="#093f68"/><path d="M209.8,130.08a21.15,21.15,0,0,1-3.44-.29,1,1,0,1,1,.34-2,17,17,0,0,0,5.38,0c.31-.92-1.05-4.83-3-8.54a1,1,0,0,1,.42-1.35,1,1,0,0,1,1.35.43c1,1.85,4,8.06,3,10.35a1.8,1.8,0,0,1-1.22,1A11.83,11.83,0,0,1,209.8,130.08Z" fill="#093f68"/><path d="M182.58,106.26a2,2,0,0,1-.21-4l16.85-1.76a2,2,0,1,1,.42,4l-16.85,1.76Z" fill="#093f68"/><path d="M239.13,107.84a1.55,1.55,0,0,1-.37,0l-16.65-3.15a2,2,0,1,1,.74-3.93l16.65,3.15a2,2,0,0,1-.37,4Z" fill="#093f68"/><path d="M215.43,118.5a1,1,0,0,1-.61-.21c-3.87-3-8.63-.07-8.84.06a1,1,0,0,1-1.07-1.69c.25-.16,6.16-3.86,11.14.06a1,1,0,0,1,.17,1.4A1,1,0,0,1,215.43,118.5Z" fill="#093f68"/><path d="M181.7,115.39h-11a1,1,0,0,1,0-2h11a1,1,0,0,1,0,2Z" fill="#093f68"/><path d="M249.64,115.39h-9a1,1,0,0,1,0-2h9a1,1,0,0,1,0,2Z" fill="#093f68"/><path d="M192.88,132.3A13.15,13.15,0,1,1,206,119.15,13.17,13.17,0,0,1,192.88,132.3Zm0-24.29A11.15,11.15,0,1,0,204,119.15,11.16,11.16,0,0,0,192.88,108Z" fill="#093f68"/><path d="M228.44,132.3a13.15,13.15,0,1,1,13.15-13.15A13.17,13.17,0,0,1,228.44,132.3Zm0-24.29a11.15,11.15,0,1,0,11.15,11.14A11.16,11.16,0,0,0,228.44,108Z" fill="#093f68"/><rect x="204.89" y="169.47" width="10.7" height="6.47" rx="2.9" fill="#f56132"/><path d="M212.69,176.94h-4.91a3.9,3.9,0,0,1-3.89-3.9v-.67a3.9,3.9,0,0,1,3.89-3.9h4.91a3.91,3.91,0,0,1,3.9,3.9V173A3.91,3.91,0,0,1,212.69,176.94Zm-4.91-6.47a1.9,1.9,0,0,0-1.89,1.9V173a1.9,1.9,0,0,0,1.89,1.9h4.91a1.9,1.9,0,0,0,1.9-1.9v-.67a1.9,1.9,0,0,0-1.9-1.9Z" fill="#093f68"/><path d="M215.55,194.93a25,25,0,0,1-5.57.62,25.64,25.64,0,0,1-5.07-.51l2.33-19.1h6Z" fill="#f56132"/><path d="M210,196.55a26.92,26.92,0,0,1-5.27-.53,1,1,0,0,1-.79-1.1l2.33-19.1a1,1,0,0,1,1-.88h6a1,1,0,0,1,1,.88l2.32,19a1,1,0,0,1-.77,1.09A25.82,25.82,0,0,1,210,196.55Zm-4-2.33a24.33,24.33,0,0,0,8.43-.08l-2.1-17.2h-4.22Z" fill="#093f68"/><path d="M175.4,162.33h0a0,0,0,0,1,0,0v79.6a0,0,0,0,1,0,0H157.3a0,0,0,0,1,0,0v-61.5A18.1,18.1,0,0,1,175.4,162.33Z" fill="#9bd2ff" class="target-color"/><path d="M175.4,242.93H157.3a1,1,0,0,1-1-1v-61.5a19.12,19.12,0,0,1,19.1-19.1,1,1,0,0,1,1,1v79.6A1,1,0,0,1,175.4,242.93Zm-17.1-2h16.1V163.36a17.12,17.12,0,0,0-16.1,17.07Z" fill="#093f68"/><path d="M244.56,162.33h18.1a0,0,0,0,1,0,0v79.6a0,0,0,0,1,0,0h0a18.1,18.1,0,0,1-18.1-18.1v-61.5A0,0,0,0,1,244.56,162.33Z" transform="translate(507.22 404.26) rotate(-180)" fill="#9bd2ff" class="target-color"/><path d="M262.66,242.93h-18.1a1,1,0,0,1-1-1v-79.6a1,1,0,0,1,1-1,19.12,19.12,0,0,1,19.1,19.1v61.5A1,1,0,0,1,262.66,242.93Zm-17.1-2h16.1v-60.5a17.11,17.11,0,0,0-16.1-17.07Z" fill="#093f68"/><path d="M267.52,203.34c-2.73.57-7.32.94-9.86-.49-2.2-1.23-2.79-4.87-4-6.89a52.62,52.62,0,0,0-5.68-7.83,2.18,2.18,0,0,1-.67-1.23c0-.83.89-1.34,1.67-1.64a76.31,76.31,0,0,1,19.43-4.59c2.39-.24,5.12-.25,6.81,1.47a2.09,2.09,0,0,1,.63,1.14,2.75,2.75,0,0,1-.54,1.7c-2,3.35-4,6.77-4.75,10.57-.41,1.91-.5,3.89-1,5.79a2.77,2.77,0,0,1-.64,1.36A2.85,2.85,0,0,1,267.52,203.34Z" fill="#70cc40"/><path d="M262.73,204.84a11.74,11.74,0,0,1-5.56-1.12c-1.79-1-2.63-3.14-3.37-5a16.35,16.35,0,0,0-1-2.22,51.31,51.31,0,0,0-5.57-7.68,3,3,0,0,1-.92-1.86c0-.78.36-1.86,2.31-2.6a76.66,76.66,0,0,1,19.69-4.65c2.5-.25,5.62-.28,7.62,1.76a3,3,0,0,1,.91,1.71,3.69,3.69,0,0,1-.66,2.33c-1.91,3.26-3.88,6.62-4.65,10.28-.17.83-.28,1.67-.4,2.56a29.09,29.09,0,0,1-.56,3.25,3.71,3.71,0,0,1-.91,1.85,3.88,3.88,0,0,1-1.95.9h0A25.57,25.57,0,0,1,262.73,204.84Zm4.79-1.5h0Zm3-21.78a18.06,18.06,0,0,0-2,.11,74.87,74.87,0,0,0-19.18,4.53c-.84.32-1,.61-1,.66s.29.46.42.61a53.4,53.4,0,0,1,5.79,8,17.81,17.81,0,0,1,1.13,2.51c.65,1.65,1.32,3.36,2.49,4,2.07,1.16,6.09,1,9.16.38a2,2,0,0,0,.95-.37,1.92,1.92,0,0,0,.38-.89,28.52,28.52,0,0,0,.51-3c.12-.88.25-1.8.44-2.71.83-4,2.88-7.48,4.87-10.87a2.17,2.17,0,0,0,.41-1.05,1.19,1.19,0,0,0-.36-.58A5.46,5.46,0,0,0,270.47,181.56Z" fill="#093f68"/><path d="M288.23,236.08c0,11.12-11.72,14.08-26.19,14.08s-26.18-3-26.18-14.08S247.58,209.9,262,209.9,288.23,225,288.23,236.08Z" fill="#70cc40"/><path d="M262,251.16c-18.29,0-27.18-4.93-27.18-15.08,0-12.23,12.54-27.18,27.18-27.18s27.19,14.95,27.19,27.18C289.23,246.23,280.34,251.16,262,251.16Zm0-40.26c-13.32,0-25.18,14.08-25.18,25.18,0,8.93,8,13.08,25.18,13.08s25.19-4.15,25.19-13.08C287.23,225,275.37,210.9,262,210.9Z" fill="#093f68"/><rect x="254.86" y="195.82" width="18.58" height="4.72" rx="2.36" fill="#ffc9b0"/><path d="M271.09,201.54H257.22a3.36,3.36,0,0,1,0-6.72h13.87a3.36,3.36,0,0,1,0,6.72Zm-13.87-4.72a1.36,1.36,0,0,0,0,2.72h13.87a1.36,1.36,0,1,0,0-2.72Z" fill="#093f68"/><rect x="254.86" y="200.54" width="18.58" height="4.72" rx="2.36" fill="#ffc9b0"/><path d="M271.09,206.25H257.22a3.36,3.36,0,1,1,0-6.71h13.87a3.36,3.36,0,1,1,0,6.71Zm-13.87-4.71a1.36,1.36,0,1,0,0,2.71h13.87a1.36,1.36,0,1,0,0-2.71Z" fill="#093f68"/><rect x="254.86" y="205.25" width="18.58" height="4.72" rx="2.36" fill="#ffc9b0"/><path d="M271.09,211H257.22a3.36,3.36,0,0,1,0-6.72h13.87a3.36,3.36,0,1,1,0,6.72Zm-13.87-4.72a1.36,1.36,0,0,0,0,2.72h13.87a1.36,1.36,0,0,0,0-2.72Z" fill="#093f68"/><rect x="254.86" y="209.97" width="18.58" height="4.72" rx="2.36" fill="#ffc9b0"/><path d="M271.09,215.69H257.22a3.36,3.36,0,0,1,0-6.72h13.87a3.36,3.36,0,1,1,0,6.72ZM257.22,211a1.36,1.36,0,0,0,0,2.72h13.87a1.36,1.36,0,0,0,0-2.72Z" fill="#093f68"/><rect x="248.11" y="196.21" width="6.76" height="13.76" rx="3.09" fill="#ffc9b0"/><path d="M251.77,211h-.57a4.09,4.09,0,0,1-4.09-4.09v-7.57a4.1,4.1,0,0,1,4.09-4.1h.57a4.1,4.1,0,0,1,4.09,4.1v7.57A4.09,4.09,0,0,1,251.77,211Zm-.57-13.76a2.1,2.1,0,0,0-2.09,2.1v7.57A2.1,2.1,0,0,0,251.2,209h.57a2.09,2.09,0,0,0,2.09-2.09v-7.57a2.09,2.09,0,0,0-2.09-2.1Z" fill="#093f68"/><rect x="111.77" y="152.37" width="61.11" height="23.97" fill="#70cc40"/><path d="M172.88,177.34H111.77a1,1,0,0,1-1-1v-24a1,1,0,0,1,1-1h61.11a1,1,0,0,1,1,1v24A1,1,0,0,1,172.88,177.34Zm-60.11-2h59.11v-22H112.77Z" fill="#093f68"/><rect x="134.11" y="151.61" width="17.08" height="25.72" fill="#093f68"/><path d="M151.19,178.32H134.11a1,1,0,0,1-1-1V151.61a1,1,0,0,1,1-1h17.08a1,1,0,0,1,1,1v25.71A1,1,0,0,1,151.19,178.32Zm-16.08-2h15.08V152.61H135.11Z" fill="#093f68"/><path d="M162.66,182.8s-3-7-3.85-7.89-19.07-5.26-18.32-1.69,6,2.7,6,2.7-21.44-3.19-22.38.42,20.94,10.75,20.94,10.75Z" fill="#ffc9b0"/><path d="M145.1,188.09a.84.84,0,0,1-.31-.05c-8.5-2.77-22.62-8-21.6-11.95.76-2.93,8.94-2.82,16.5-2.05a5,5,0,0,1-.18-.62,1.85,1.85,0,0,1,1.08-2.09c1.92-1,6.7-.33,10.39.37.07,0,7.62,1.47,8.58,2.55s3.3,6.49,4,8.15a1,1,0,0,1-.68,1.37l-17.56,4.29A1,1,0,0,1,145.1,188.09Zm-14-12.48c-3.42,0-5.7.32-6,1,.08,1.56,9.4,6,20,9.46l16.13-3.94a63.18,63.18,0,0,0-3.15-6.47c-2-1.2-14.9-3.67-16.63-2.54a2.09,2.09,0,0,0,.88,1.24c1.54.19,3,.39,4.32.59a1,1,0,0,1,0,2,8.67,8.67,0,0,1-4.93-.6A98.1,98.1,0,0,0,131.11,175.61Zm27.06.06Z" fill="#093f68"/><path d="M162.66,182.8l-17.56,4.29s-2.25,43.55,7,52.56,23.84,9.95,24.21-2.25S162.66,182.8,162.66,182.8Z" fill="#9bd2ff" class="target-color"/><path d="M167,247.48c-5.08,0-11.07-2.61-15.67-7.12-9.41-9.21-7.34-51.52-7.25-53.32a1,1,0,0,1,.77-.92l17.55-4.29a1,1,0,0,1,1.19.66c.57,1.74,14,42.7,13.65,54.94-.14,4.52-2.19,7.81-5.78,9.25A12,12,0,0,1,167,247.48Zm-21-59.59c-.11,2.65-.44,12,.06,22.07.75,15.45,3,25.47,6.62,29,5.5,5.39,13.07,7.86,18,5.88,2.84-1.14,4.41-3.72,4.52-7.45C175.6,226.44,164,190.12,162,184Z" fill="#093f68"/><rect x="116.63" y="145.8" width="25.23" height="6.56" fill="#ffbc0e"/><path d="M141.87,153.37H116.63a1,1,0,0,1-1-1V145.8a1,1,0,0,1,1-1h25.24a1,1,0,0,1,1,1v6.57A1,1,0,0,1,141.87,153.37Zm-24.24-2h23.24V146.8H117.63Z" fill="#093f68"/><rect x="118.23" y="139.24" width="25.23" height="6.56" fill="#ffbc0e"/><path d="M143.46,146.8H118.23a1,1,0,0,1-1-1v-6.56a1,1,0,0,1,1-1h25.23a1,1,0,0,1,1,1v6.56A1,1,0,0,1,143.46,146.8Zm-24.23-2h23.23v-4.56H119.23Z" fill="#093f68"/><rect x="147.32" y="145.8" width="25.23" height="6.56" fill="#ffbc0e"/><path d="M172.56,153.37H147.32a1,1,0,0,1-1-1V145.8a1,1,0,0,1,1-1h25.24a1,1,0,0,1,1,1v6.57A1,1,0,0,1,172.56,153.37Zm-24.24-2h23.24V146.8H148.32Z" fill="#093f68"/><path d="M260.67,242.46v-1.93c-.7-.2-1.39-.34-2.05-.57a6,6,0,0,1-3.16-2.37,5.89,5.89,0,0,1-.91-3.28h3.79a3,3,0,0,0,2.32,2.8V232c-.76-.22-1.52-.43-2.27-.66a5.28,5.28,0,0,1-2.2-1.26,4.3,4.3,0,0,1-1.22-2.38,6.08,6.08,0,0,1,.24-3.3,5.45,5.45,0,0,1,3.32-3.3,17.24,17.24,0,0,1,1.91-.49l.23-.05V218h3.55v.25c0,.74,0,1.47,0,2.21,0,.18.06.23.23.27a7.49,7.49,0,0,1,3.3,1.54,5.34,5.34,0,0,1,1.88,3.29c.06.35.09.71.14,1.08H265.9a2.67,2.67,0,0,0-1.66-2.44V229l.41.1a13.8,13.8,0,0,1,3,1,4.37,4.37,0,0,1,2.62,3.65,5.72,5.72,0,0,1-1,4.18,5.82,5.82,0,0,1-2.86,2.12c-.71.24-1.45.4-2.21.62v1.87Zm3.56-9.75v4.47a3.34,3.34,0,0,0,1.57-.7,2,2,0,0,0-.1-3.09A12.52,12.52,0,0,0,264.23,232.71Zm-3.57-4.57v-4.32a14.13,14.13,0,0,0-1.35.69,1.87,1.87,0,0,0,.11,3.12C259.81,227.82,260.23,228,260.66,228.14Z" fill="#093f68"/></g></svg>