<svg id="_360_financial_analyst_outline" data-name="#360_financial_analyst_outline" xmlns="http://www.w3.org/2000/svg" viewBox="0 0 400 300" data-imageid="coins-b" imageName="Financial Analyst" class="illustrations_image" style="width: 272px;"><path d="M144.16,67s-17.93-.24-21.57,16.32C119.13,99.08,124.17,206,124.17,206h77.14V88.79c0-22-21.52-29.39-38.33-28.53C153.24,60.75,144.16,67,144.16,67Z" fill="#725858"/><path d="M201.31,207H124.17a1,1,0,0,1-1-1c-.21-4.37-5-107.19-1.56-122.89,3.49-15.9,19.72-17,22.23-17.1,1.59-1,10-6.3,19.09-6.76,12.48-.64,24.17,3,31.3,9.81,5.36,5.1,8.08,11.73,8.08,19.72V206A1,1,0,0,1,201.31,207Zm-76.19-2h75.19V88.79c0-7.42-2.51-13.56-7.46-18.27C186.11,64.11,175,60.64,163,61.25c-9.33.48-18.22,6.53-18.31,6.59a1.06,1.06,0,0,1-.58.17c-.66,0-17.16,0-20.57,15.54C120.35,98.2,124.63,194.3,125.12,205Z" fill="#093f68"/><path d="M232.7,203.05c-7.26,7.67-17.81,18.21-24.48,22.22-10.88,6.52-14-2.38-14.85-10.39V235.7H120v-61a14.2,14.2,0,0,1,13.52-14.18l.68,0h61.58A11.47,11.47,0,0,1,207.26,172v29.44l18.06-10.32Q228.77,197.23,232.7,203.05Z" fill="#00529c" class="target-color"/><path d="M193.37,236.7H120a1,1,0,0,1-1-1v-61a15.19,15.19,0,0,1,14.47-15.18l.73,0h61.58A12.48,12.48,0,0,1,208.26,172V199.7l16.57-9.46a1,1,0,0,1,.76-.1,1,1,0,0,1,.6.48c2.2,3.89,4.66,7.88,7.34,11.87a1,1,0,0,1-.1,1.24c-7.56,8-18,18.36-24.69,22.39-4.13,2.47-7.6,3-10.33,1.68a9.08,9.08,0,0,1-4-4.59V235.7A1,1,0,0,1,193.37,236.7Zm-72.36-2h71.36V214.88a1,1,0,0,1,2-.11c.64,6.06,2.34,9.95,4.93,11.24,2.08,1,4.91.49,8.41-1.6,6.35-3.82,16.29-13.66,23.72-21.47-2.34-3.51-4.51-7-6.48-10.47l-17.19,9.82a1,1,0,0,1-1.5-.86V172a10.48,10.48,0,0,0-10.47-10.47H133.61A13.2,13.2,0,0,0,121,174.72Z" fill="#093f68"/><polygon points="163.45 212.44 147.74 160.54 179.16 160.54 163.45 212.44" fill="#093f68"/><path d="M163.45,213.44h0a1,1,0,0,1-1-.71l-15.71-51.9a1,1,0,0,1,.16-.89,1,1,0,0,1,.8-.4h31.42a1,1,0,0,1,1,1.29l-15.71,51.9A1,1,0,0,1,163.45,213.44Zm-14.36-51.9L163.45,209l14.36-47.45Z" fill="#093f68"/><path d="M134.21,160.52l-.68,0v0Z" fill="#00529c" class="target-color"/><path d="M133.56,161.54a1,1,0,0,1-1-1,1,1,0,0,1,1-1h.68a1,1,0,0,1,0,2h-.65Z" fill="#093f68"/><path d="M136.17,176.13a19.26,19.26,0,0,0-5.72,14.2A25.1,25.1,0,0,0,136.17,206" fill="#00529c" class="target-color"/><path d="M136.17,207a1,1,0,0,1-.74-.33,25.91,25.91,0,0,1-6-16.31c0-9.7,5.83-14.76,6.07-15a1,1,0,0,1,1.3,1.53,18.49,18.49,0,0,0-5.37,13.44,24.3,24.3,0,0,0,5.46,15,1,1,0,0,1-.74,1.68Z" fill="#093f68"/><path d="M190.11,176.13a19.24,19.24,0,0,1,5.73,14.2A25.08,25.08,0,0,1,190.11,206" fill="#00529c" class="target-color"/><path d="M190.11,207a1,1,0,0,1-.67-.26,1,1,0,0,1-.07-1.42,24.21,24.21,0,0,0,5.47-15,18.44,18.44,0,0,0-5.38-13.44,1,1,0,0,1,1.3-1.53c.25.21,6.08,5.27,6.08,15a25.83,25.83,0,0,1-6,16.31A1,1,0,0,1,190.11,207Z" fill="#093f68"/><polygon points="162.98 160.52 156.22 174.31 146.21 160.52 162.98 160.52" fill="#fff"/><path d="M156.22,175.31a1,1,0,0,1-.81-.41l-10-13.8a1,1,0,0,1,.81-1.58H163a1,1,0,0,1,.85.47,1,1,0,0,1,0,1l-6.76,13.79a1,1,0,0,1-.81.56Zm-8.05-13.79,7.88,10.86,5.32-10.86Z" fill="#093f68"/><polygon points="180.39 160.52 170.34 174.26 170.19 174.57 163.62 160.52 180.39 160.52" fill="#fff"/><path d="M170.19,175.57h0a1,1,0,0,1-.9-.58l-6.57-14.05a1,1,0,0,1,.91-1.42h16.77a1,1,0,0,1,.81,1.59L171.09,175A1,1,0,0,1,170.19,175.57Zm-5-14,5.16,11,8.07-11Z" fill="#093f68"/><path d="M157.52,154h11.85a0,0,0,0,1,0,0v6.82a5,5,0,0,1-5,5h-1.79a5,5,0,0,1-5-5V154A0,0,0,0,1,157.52,154Z" fill="#ffc9b0"/><path d="M164.34,166.88h-1.79a6,6,0,0,1-6-6V154a1,1,0,0,1,1-1h11.85a1,1,0,0,1,1,1v6.82A6,6,0,0,1,164.34,166.88ZM158.52,155v5.82a4,4,0,0,0,4,4h1.79a4,4,0,0,0,4-4V155Z" fill="#093f68"/><ellipse cx="129.58" cy="123.24" rx="11.51" ry="9.92" fill="#ffc9b0"/><path d="M129.58,134.17c-6.9,0-12.52-4.9-12.52-10.93s5.62-10.92,12.52-10.92,12.51,4.9,12.51,10.92S136.48,134.17,129.58,134.17Zm0-19.85c-5.8,0-10.52,4-10.52,8.92s4.72,8.93,10.52,8.93,10.51-4,10.51-8.93S135.38,114.32,129.58,114.32Z" fill="#093f68"/><ellipse cx="196.71" cy="123.24" rx="11.51" ry="9.92" fill="#ffc9b0"/><path d="M196.71,134.17c-6.9,0-12.52-4.9-12.52-10.93s5.62-10.92,12.52-10.92,12.51,4.9,12.51,10.92S203.61,134.17,196.71,134.17Zm0-19.85c-5.8,0-10.52,4-10.52,8.92s4.72,8.93,10.52,8.93,10.51-4,10.51-8.93S202.5,114.32,196.71,114.32Z" fill="#093f68"/><path d="M177.32,84.85c-6-2.83-21.09-5.63-21.09-5.63-3.18,8.73-12,13.86-20.19,18.26-1.75.94-5.76,2.16-7.32.93v22.45a34.73,34.73,0,0,0,69.46,0v-27C193.66,93.84,181.27,86.7,177.32,84.85Z" fill="#ffc9b0"/><path d="M163.45,156.58a35.77,35.77,0,0,1-35.73-35.72V98.41a1,1,0,0,1,1.62-.79c.93.74,4.25,0,6.23-1,8.69-4.68,16.75-9.56,19.72-17.72a1,1,0,0,1,1.12-.64c.62.12,15.25,2.85,21.34,5.7h0c.92.43,2.29,1.15,3.88,2,5,2.59,13.31,6.92,16.55,6.93a1,1,0,0,1,1,1v27A35.77,35.77,0,0,1,163.45,156.58ZM129.72,99.85v21a33.73,33.73,0,0,0,67.46,0V94.77c-3.66-.53-9.88-3.65-16.47-7.08-1.57-.82-2.93-1.52-3.81-1.94h0c-5.06-2.37-16.84-4.76-20-5.39-3.42,8.34-11.57,13.28-20.35,18C135.13,99.11,132,100.21,129.72,99.85Z" fill="#093f68"/><circle cx="147.37" cy="115.8" r="3.22" fill="#093f68"/><circle cx="180.54" cy="115.8" r="3.22" fill="#093f68"/><path d="M163.28,127.61a19.35,19.35,0,0,1-3.13-.26,1,1,0,0,1-.81-1.16,1,1,0,0,1,1.16-.81,14.74,14.74,0,0,0,4.77.05c.2-.92-1-4.37-2.71-7.6a1,1,0,0,1,.43-1.35,1,1,0,0,1,1.34.42c1.13,2.16,3.65,7.4,2.73,9.45a1.71,1.71,0,0,1-1.16,1A11.43,11.43,0,0,1,163.28,127.61Z" fill="#093f68"/><path d="M153.94,106.38h0l-15.34,0a1.59,1.59,0,0,1,0-3.18h0l15.34,0a1.59,1.59,0,1,1,0,3.17Z" fill="#093f68"/><path d="M175.8,106.76a1.59,1.59,0,0,1-.08-3.18L191,102.8a1.59,1.59,0,0,1,.16,3.17l-15.32.79Z" fill="#093f68"/><path d="M153.94,133.17h17.31a0,0,0,0,1,0,0v5.17A8.66,8.66,0,0,1,162.6,147h0a8.66,8.66,0,0,1-8.66-8.66v-5.17A0,0,0,0,1,153.94,133.17Z" fill="#093f68"/><path d="M162.6,148a9.67,9.67,0,0,1-9.66-9.66v-5.16a1,1,0,0,1,1-1h17.31a1,1,0,0,1,1,1v5.16A9.66,9.66,0,0,1,162.6,148Zm-7.66-13.82v4.16a7.66,7.66,0,1,0,15.31,0v-4.16Z" fill="#093f68"/><path d="M133.31,236.7a1,1,0,0,1-1-1v-34a1,1,0,0,1,2,0v34A1,1,0,0,1,133.31,236.7Z" fill="#093f68"/><path d="M149.51,76.59s33.41,16.15,39,36c0,0,11-22.55,2.61-38.82" fill="#725858"/><path d="M188.51,113.59h-.09a1,1,0,0,1-.88-.72c-5.4-19.18-38.14-35.21-38.47-35.37a1,1,0,0,1-.46-1.34,1,1,0,0,1,1.33-.46A132.91,132.91,0,0,1,167.5,86.33c11,7.92,18.08,15.81,21.12,23.48,2.46-6.11,8.12-23,1.61-35.58a1,1,0,1,1,1.77-.92c3.54,6.86,4.21,15.92,1.93,26.19A65.61,65.61,0,0,1,189.4,113,1,1,0,0,1,188.51,113.59Z" fill="#093f68"/><rect x="234.28" y="219.26" width="12.86" height="16.43" fill="#fff"/><path d="M247.15,236.7H234.28a1,1,0,0,1-1-1V219.26a1,1,0,0,1,1-1h12.87a1,1,0,0,1,1,1V235.7A1,1,0,0,1,247.15,236.7Zm-11.87-2h10.87V220.26H235.28Z" fill="#093f68"/><rect x="255.14" y="206.83" width="12.86" height="28.86" fill="#fff"/><path d="M268,236.7H255.14a1,1,0,0,1-1-1V206.83a1,1,0,0,1,1-1H268a1,1,0,0,1,1,1V235.7A1,1,0,0,1,268,236.7Zm-11.87-2H267V207.83H256.14Z" fill="#093f68"/><rect x="276" y="191.05" width="12.86" height="44.65" fill="#fff"/><path d="M288.87,236.7H276a1,1,0,0,1-1-1V191.05a1,1,0,0,1,1-1h12.87a1,1,0,0,1,1,1V235.7A1,1,0,0,1,288.87,236.7Zm-11.87-2h10.87V192.05H277Z" fill="#093f68"/><path d="M225.32,191.11l5.28-3.59s3.38-10.32,5.82-13,4.88-2.82,4.31,0-2.06,7.25-2.06,7.25,12.39-11.9,14.26-9.29,1.69,5.79-.93,11.42-19.3,19.1-19.3,19.1Z" fill="#ffc9b0"/><path d="M232.7,204.05l-.17,0a1,1,0,0,1-.68-.46l-7.38-11.94a1,1,0,0,1,.29-1.35l5-3.4c.62-1.82,3.6-10.48,5.93-13,1.83-2,3.77-2.79,5-2.14.54.28,1.39,1,1,3-.22,1.13-.6,2.51-1,3.77,3.49-3.11,9.05-7.61,11.58-7.37a1.91,1.91,0,0,1,1.42.77c2.13,3,1.89,6.57-.85,12.44S234,203.27,233.33,203.82A1,1,0,0,1,232.7,204.05Zm-6-12.65L233,201.55c3.45-2.85,16-13.38,18.14-18,2.79-6,2.43-8.48,1-10.42-1.15-.36-7.14,4-12.76,9.43a1,1,0,0,1-1.64-1,73.39,73.39,0,0,0,2-7.13c.14-.66,0-.87,0-.87s-1.22.25-2.61,1.75c-1.88,2-4.68,9.77-5.6,12.58a1.06,1.06,0,0,1-.39.52Z" fill="#093f68"/><path d="M238.67,181.82s5.54,8,0,12.46" fill="#ffc9b0"/><path d="M238.67,195.28a1,1,0,0,1-.78-.37,1,1,0,0,1,.15-1.41c4.74-3.86,0-10.82-.19-11.11a1,1,0,1,1,1.64-1.14c2.1,3,4.76,9.78-.19,13.8A1,1,0,0,1,238.67,195.28Z" fill="#093f68"/><path d="M256.49,80.73h0a39.86,39.86,0,0,0,0,79.72h0a39.86,39.86,0,1,0,0-79.72Zm0,62.79h0a22.93,22.93,0,1,1,0-45.86h0a22.93,22.93,0,0,1,0,45.86Z" fill="#70cc40" stroke="#093f68" stroke-linecap="round" stroke-linejoin="round" stroke-width="2"/><path d="M233.55,120.6a22.9,22.9,0,0,0,8.38,17.71l-11.32,12.6a39.86,39.86,0,0,1,25.87-70.18V97.66A22.94,22.94,0,0,0,233.55,120.6Z" fill="#ffbc0e"/><path d="M230.61,151.91a1,1,0,0,1-.65-.24,40.86,40.86,0,0,1,26.52-71.94h0a1,1,0,0,1,1,1V97.66a1,1,0,0,1-1,1,21.93,21.93,0,0,0-13.92,38.87,1,1,0,0,1,.37.7,1,1,0,0,1-.26.74l-11.32,12.61A1,1,0,0,1,230.61,151.91Zm24.87-70.16a38.86,38.86,0,0,0-25,67.76l10-11.11a23.92,23.92,0,0,1,15-41.71Z" fill="#093f68"/><path d="M256.48,143.52v16.93a39.61,39.61,0,0,1-25.87-9.54l11.32-12.6A22.83,22.83,0,0,0,256.48,143.52Z" fill="#f56132"/><path d="M256.48,161.45A40.8,40.8,0,0,1,230,151.67a1,1,0,0,1-.1-1.42l11.32-12.61a1,1,0,0,1,1.38-.11,21.94,21.94,0,0,0,13.92,5,1,1,0,0,1,1,1v16.93A1,1,0,0,1,256.48,161.45Zm-24.43-10.64a38.79,38.79,0,0,0,23.43,8.63V144.5a24,24,0,0,1-13.43-4.83Z" fill="#093f68"/><path d="M254.19,136.43v-2.5c-.91-.25-1.8-.44-2.65-.73a7.72,7.72,0,0,1-4.08-3.07,7.53,7.53,0,0,1-1.18-4.24h4.89a3.88,3.88,0,0,0,3,3.62v-6.64c-1-.29-2-.56-2.93-.86a6.86,6.86,0,0,1-2.84-1.63,5.53,5.53,0,0,1-1.59-3.08,7.86,7.86,0,0,1,.31-4.27,7.14,7.14,0,0,1,4.3-4.26,23,23,0,0,1,2.47-.64l.3-.06v-3.32h4.58v.32c0,1,0,1.9,0,2.85,0,.24.07.31.29.36a9.6,9.6,0,0,1,4.27,2,6.88,6.88,0,0,1,2.43,4.26c.08.45.12.91.18,1.39h-5a3.5,3.5,0,0,0-2.16-3.16V119l.54.13a17.36,17.36,0,0,1,3.9,1.24,5.65,5.65,0,0,1,3.38,4.72,7.43,7.43,0,0,1-5,8.14c-.92.32-1.88.53-2.87.8v2.43Zm4.6-12.61v5.77a4.15,4.15,0,0,0,2-.89c1.06-.87,1.44-3-.12-4A17.75,17.75,0,0,0,258.79,123.82Zm-4.62-5.91v-5.58a15.69,15.69,0,0,0-1.74.89,2.41,2.41,0,0,0,.15,4C253.08,117.5,253.61,117.68,254.17,117.91Z" fill="#093f68"/><rect x="98.2" y="176.61" width="50.63" height="58.72" rx="5.71" transform="translate(-51.93 41.96) rotate(-15.98)" fill="#fff"/><path d="M111.17,240.81a6.71,6.71,0,0,1-6.44-4.86l-13-45.48a6.72,6.72,0,0,1,4.6-8.29l37.7-10.8a6.72,6.72,0,0,1,8.3,4.6l13,45.48a6.71,6.71,0,0,1-4.6,8.29h0L113,240.55A7,7,0,0,1,111.17,240.81Zm24.7-67.69a4.8,4.8,0,0,0-1.3.18L96.86,184.1a4.72,4.72,0,0,0-3.23,5.82l13,45.48a4.72,4.72,0,0,0,5.82,3.23l37.7-10.8a4.72,4.72,0,0,0,3.23-5.82l-13-45.47a4.7,4.7,0,0,0-4.52-3.42Zm14.59,55.67Z" fill="#093f68"/><rect x="92.54" y="213.67" width="15.77" height="4.39" rx="2.19" transform="translate(-97.06 82.89) rotate(-31.1)" fill="#ffc9b0"/><path d="M95.56,222a3.19,3.19,0,0,1-1.65-5.93l9.74-5.88a3.19,3.19,0,0,1,3.3,5.47h0l-9.74,5.88A3.22,3.22,0,0,1,95.56,222Zm9.74-10.27a1.2,1.2,0,0,0-.62.18l-9.74,5.87a1.2,1.2,0,1,0,1.23,2.05l9.75-5.88a1.2,1.2,0,0,0-.62-2.22Zm1.13,3.08h0Z" fill="#093f68"/><rect x="94.81" y="217.43" width="15.77" height="4.39" rx="2.19" transform="translate(-98.68 84.6) rotate(-31.1)" fill="#ffc9b0"/><path d="M97.83,225.76a3.2,3.2,0,0,1-1.66-5.93l9.75-5.88a3.19,3.19,0,0,1,3.3,5.47l-9.75,5.88A3.16,3.16,0,0,1,97.83,225.76Zm9.73-10.27a1.22,1.22,0,0,0-.61.17l-9.74,5.88a1.21,1.21,0,0,0-.55.74,1.19,1.19,0,0,0,1.78,1.3l9.74-5.87h0a1.21,1.21,0,0,0,.55-.74,1.23,1.23,0,0,0-.14-.9,1.19,1.19,0,0,0-.74-.54A.92.92,0,0,0,107.56,215.49Z" fill="#093f68"/><rect x="97.08" y="221.19" width="15.77" height="4.39" rx="2.19" transform="translate(-100.29 86.32) rotate(-31.1)" fill="#ffc9b0"/><path d="M100.09,229.51a3.19,3.19,0,0,1-1.65-5.93l9.74-5.87a3.21,3.21,0,0,1,4.39,1.08,3.21,3.21,0,0,1-1.09,4.39l-9.74,5.88A3.18,3.18,0,0,1,100.09,229.51Zm9.74-10.26a1.13,1.13,0,0,0-.61.17l-9.75,5.88a1.19,1.19,0,0,0,1.24,2l9.74-5.87h0a1.19,1.19,0,0,0,.54-.74,1.18,1.18,0,0,0-.13-.9A1.21,1.21,0,0,0,109.83,219.25Z" fill="#093f68"/><rect x="99.34" y="224.95" width="15.77" height="4.39" rx="2.19" transform="translate(-101.91 88.03) rotate(-31.1)" fill="#ffc9b0"/><path d="M102.36,233.27a3.31,3.31,0,0,1-.77-.09,3.19,3.19,0,0,1-.88-5.84l9.74-5.87a3.19,3.19,0,0,1,3.3,5.47L104,232.81A3.14,3.14,0,0,1,102.36,233.27ZM112.1,223a1.16,1.16,0,0,0-.62.17l-9.74,5.88a1.15,1.15,0,0,0-.54.73,1.21,1.21,0,0,0,.13.91,1.23,1.23,0,0,0,.74.54,1.18,1.18,0,0,0,.9-.14l9.75-5.88h0a1.19,1.19,0,0,0-.62-2.21Z" fill="#093f68"/><circle cx="118.35" cy="187.08" r="2.14" fill="#093f68"/><path d="M193.37,215.88a1,1,0,0,1-1-1v-14a1,1,0,0,1,2,0v14A1,1,0,0,1,193.37,215.88Z" fill="#093f68"/><path d="M228.64,159.88h-14a1,1,0,1,1,0-2h14a1,1,0,0,1,0,2Z" fill="#dfeaef"/><path d="M228.64,165.43h-14a1,1,0,0,1,0-2h14a1,1,0,0,1,0,2Z" fill="#dfeaef"/><path d="M223.24,171h-8.59a1,1,0,0,1,0-2h8.59a1,1,0,0,1,0,2Z" fill="#dfeaef"/><path d="M301.55,155H295a1,1,0,0,1,0-2h6.52a1,1,0,0,1,0,2Z" fill="#dfeaef"/><path d="M291.1,155h-4.47a1,1,0,0,1,0-2h4.47a1,1,0,0,1,0,2Z" fill="#dfeaef"/><path d="M295.58,161.52h-8.95a1,1,0,0,1,0-2h8.95a1,1,0,0,1,0,2Z" fill="#dfeaef"/><path d="M239.55,69.14h-6a1,1,0,0,1,0-2h6a1,1,0,0,1,0,2Z" fill="#dfeaef"/><path d="M228.64,69.14h-7a1,1,0,0,1,0-2h7a1,1,0,0,1,0,2Z" fill="#dfeaef"/><path d="M239.55,74.77H221.67a1,1,0,0,1,0-2h17.88a1,1,0,0,1,0,2Z" fill="#dfeaef"/><path d="M230.61,80.4h-8.94a1,1,0,0,1,0-2h8.94a1,1,0,0,1,0,2Z" fill="#dfeaef"/><path d="M300.94,236.7H183.75a1,1,0,0,1,0-2H300.94a1,1,0,0,1,0,2Z" fill="#093f68"/><path d="M235.29,215.44a1,1,0,0,1-.78-.37,1,1,0,0,1,.14-1.41l48-39.21a1,1,0,1,1,1.27,1.55l-48,39.21A1,1,0,0,1,235.29,215.44Z" fill="#dfeaef"/><path d="M283.25,182.07a1.07,1.07,0,0,1-.25,0,1,1,0,0,1-.73-1.21l1.42-5.68h-6.6a1,1,0,0,1,0-2H285a1,1,0,0,1,.79.39,1,1,0,0,1,.18.86l-1.72,6.92A1,1,0,0,1,283.25,182.07Z" fill="#dfeaef"/></svg>