<svg id="Layer_1" data-name="Layer 1" xmlns="http://www.w3.org/2000/svg" viewBox="0 0 400 300" data-imageid="financial-analyst-b" imageName="Accountant" class="illustrations_image" style="width: 272px;"><path d="M136.76,50.41c-47.5,11.3-85,47-96,92.87-8.19,34.15-1,69.36,54.09,82.16C214,253.13,342.62,244,358,188.63S344.85,38.27,276.73,32.4C237.94,29.05,179.72,40.19,136.76,50.41Z" fill="#e6e6e6" opacity="0.3"/><rect x="127.09" y="245.46" width="12.08" height="21.25" fill="#ffd200"/><path d="M303.86,268.21a10.18,10.18,0,0,1-6.37-2.37,12.23,12.23,0,0,1-4.63-8.95,12.38,12.38,0,0,1,3.72-9.38,10.77,10.77,0,0,1,9.85-2.65l-.75,2.91a7.73,7.73,0,0,0-7,1.92,9.16,9.16,0,0,0,.73,13.81,6.91,6.91,0,0,0,5.6,1.61,9.75,9.75,0,0,0,5.2-3.25c4.15-4.68,5.1-11.49,5.67-17.51,1.27-13.56,1.1-25.24-.53-35.69a89.34,89.34,0,0,0-6-21.3c-.24-.55-.47-1.11-.69-1.66-2-4.74-3.64-8.83-8.45-9.33a21.46,21.46,0,0,0-3.86.12c-2.28.2-4.64.41-6.74-.34-5-1.78-4.76-7.83-4.64-11.45.54-16.08-1.56-26.4-6.22-30.69-2.13-2-4.82-2.71-8.21-2.31-4.51.53-7.38,5-8.55,13.22a64.62,64.62,0,0,0-.31,13.11l-3,.29c-.11-1.14-2.54-27.95,11.49-29.6a12.71,12.71,0,0,1,10.59,3.08c5.41,5,7.76,15.77,7.19,33-.13,3.95,0,7.56,2.65,8.53,1.48.53,3.51.35,5.47.17a24.45,24.45,0,0,1,4.43-.12c6.59.7,8.88,6.26,10.91,11.18.22.54.45,1.08.68,1.62a92.3,92.3,0,0,1,6.17,22c1.67,10.7,1.85,22.62.55,36.43-.61,6.49-1.65,13.86-6.41,19.22a12.63,12.63,0,0,1-6.89,4.21A9.23,9.23,0,0,1,303.86,268.21Z" fill="#e6e6e6"/><rect x="253.61" y="153.67" width="16.74" height="1.88" fill="#c7c9c9"/><path d="M90,228.33s-.49,14.85,10.23,18.34S147.66,256,166,244.92s7.1-25.61-8.53-24.44S90,228.33,90,228.33Z" fill="#ffd200"/><path d="M105.71,109.87S109,90.69,95,86.31s-34.05.28-32.3,21.24S90,228.33,90,228.33l29.1-2S96.35,153.53,105.71,109.87Z" fill="#ffd200"/><path d="M135.47,124.37,122,150.66l36.82,19a16.41,16.41,0,0,0,22.48-7.81L203.83,112s10-.93,11.94-7.42-13.5-3.61-17.26,1.1S167,149.84,167,149.84Z" fill="#f4a28c"/><path d="M135.47,124.37,122,150.66l36.82,19a16.41,16.41,0,0,0,22.48-7.81L203.83,112s10-.93,11.94-7.42-13.5-3.61-17.26,1.1S167,149.84,167,149.84Z" opacity="0.08"/><polygon points="136.23 71 129.2 95.81 141.9 101.62 141.37 80.21 136.23 71" fill="#f4a28c"/><path d="M141.54,84.39a10.43,10.43,0,0,1-4.74-3.65s-.4,5.25,4.72,11.08Z" fill="#ce8172" opacity="0.31"/><path d="M152.33,71.81s-.78,8.73-3.24,14.19a4.4,4.4,0,0,1-5.85,2.19c-2.74-1.28-6.06-3.81-6.21-8.54l-1.24-8s-.6-5,4.89-7.67S153.07,66.51,152.33,71.81Z" fill="#f4a28c"/><path d="M151.56,77.28,153.37,81a1.4,1.4,0,0,1-1.25,2l-3.41,0Z" fill="#f4a28c"/><path d="M101.87,111.91S92.28,115.38,92,136s12.53,57,12.33,75.91,23.14,41.27,58.26,20.77-29.07-27.51-29.07-27.51Z" opacity="0.08"/><path d="M111.19,193.81s-4.27,26.08,8,32.49,43.46,6.4,43.46,6.4l-4.46,34.05h45.18l1.16-66.36L155,193.81Z" fill="#24285b"/><rect x="177.35" y="187.22" width="125.74" height="13.17" transform="translate(480.44 387.61) rotate(-180)" fill="#e6e6e6"/><path d="M152.39,67.52s2.41,9.32-10.55,10c-3.72.21-6.81,2.69-7.16,6.35-.18,2-.1,4.1-1.2,5.74-1.27,1.89-3.76,2.56-6,2.59-2.91,0-6.1-.93-7.59-3.43-1.95-3.29-.16-7.46,1.62-10.84L126,69.43c2.14-4,4.48-8.3,8.49-10.49A9.32,9.32,0,0,1,140,57.77a14.57,14.57,0,0,1,2.75.69C147.87,60.11,151.31,61.78,152.39,67.52Z" fill="#24285b"/><path d="M141.84,77.57s.53-3.34-2-3.53-3.34,4.63,0,5.68Z" fill="#f4a28c"/><path d="M141.9,101.62l-12.7-5.81s-20.73-.2-27.33,16.1,9.32,81.9,9.32,81.9H155a355.84,355.84,0,0,1,5.82-45C165.52,125.49,161.37,117,141.9,101.62Z" fill="#00529c" class="target-color"/><path d="M130.22,108.11a29.25,29.25,0,0,1,11.93,23.46c-.07,15.55-3.53,44.86,7.1,44.68l6.86,4.7L155,193.81h-29s-12.88-.94-15-36.22S130.22,108.11,130.22,108.11Z" opacity="0.08"/><path d="M144.86,104l.57-8.19-16.23-4-2.11,4.09S130.61,103.46,144.86,104Z" fill="#00529c" class="target-color"/><rect x="190.77" y="200.39" width="100.22" height="66.36" transform="translate(481.76 467.15) rotate(-180)" fill="#c7c9c9"/><path d="M142.36,130.5l-27.21,11.56,16.11,38.19a16.4,16.4,0,0,0,22.27,8.39l49.24-23.86s8.26,5.67,13.92,1.94-8.06-11.41-14-10.2-52.46,13.73-52.46,13.73Z" fill="#f4a28c"/><path d="M152.12,169.75s-8-60.42-23.16-61.58c-9-.69-25.37,3.52-13.81,33.89l14,36.73Z" fill="#00529c" class="target-color"/><path d="M152.12,169.75s-8-60.42-23.16-61.58c-9-.69-25.37,3.52-13.81,33.89l14,36.73Z" fill="#fff" opacity="0.44"/><polygon points="290.99 200.39 290.99 221.1 190.77 207.82 190.77 200.39 290.99 200.39" opacity="0.08"/><polygon points="275.1 155.55 275.1 187.22 191.1 187.51 193.81 179.62 195.89 173.57 241.6 167.93 245.8 155.55 275.1 155.55" fill="#c7c9c9"/><path d="M275.1,155.55v31.67l-65.88.29s15.52-4,26.66-7.41C262.88,171.9,275.1,155.55,275.1,155.55Z" opacity="0.08"/><path d="M260.79,171.73,269.88,152a3.55,3.55,0,1,0-1.88-.86l-9.09,19.77a3.56,3.56,0,1,0,1.88.87Z" fill="#e6e6e6"/><circle cx="270.35" cy="148.45" r="2.03" fill="#c7c9c9"/><rect x="203.82" y="168.63" width="6.55" height="1.76" transform="translate(-19.26 26.73) rotate(-7.06)" fill="#c7c9c9"/><rect x="206.47" y="169.5" width="1.58" height="2.78" transform="translate(-19.43 26.76) rotate(-7.06)" fill="#c7c9c9"/><rect x="215.55" y="167.18" width="6.55" height="1.76" transform="translate(-18.99 28.16) rotate(-7.06)" fill="#c7c9c9"/><rect x="218.2" y="168.05" width="1.58" height="2.78" transform="translate(-19.16 28.19) rotate(-7.06)" fill="#c7c9c9"/><rect x="226.09" y="165.77" width="6.55" height="1.76" transform="translate(-18.74 29.44) rotate(-7.06)" fill="#c7c9c9"/><rect x="228.74" y="166.64" width="1.58" height="2.78" transform="translate(-18.91 29.47) rotate(-7.06)" fill="#c7c9c9"/><rect x="126.84" y="64.66" width="25.96" height="2.35" transform="translate(3.2 -6.41) rotate(2.66)" fill="#00529c" class="target-color"/><path d="M139.12,67s8,11.46,15.83,9.57-2.22-8.94-2.22-8.94Z" fill="#00529c" class="target-color"/><path d="M139.12,67s8,11.46,15.83,9.57-2.22-8.94-2.22-8.94Z" fill="#fff" opacity="0.44"/><rect x="207.96" y="77.81" width="40.17" height="48.65" transform="translate(68.13 -89.87) rotate(26.08)" fill="#e6e6e6"/><rect x="221.55" y="88.02" width="26.16" height="1.33" transform="translate(62.89 -94.13) rotate(26.08)" opacity="0.08"/><rect x="218.26" y="94.74" width="26.16" height="1.33" transform="translate(65.51 -92) rotate(26.08)" opacity="0.08"/><rect x="214.96" y="101.47" width="26.16" height="1.33" transform="translate(68.13 -89.87) rotate(26.08)" opacity="0.08"/><rect x="211.67" y="108.19" width="26.16" height="1.33" transform="translate(70.75 -87.73) rotate(26.08)" opacity="0.08"/><rect x="208.67" y="113.65" width="20.38" height="1.33" transform="translate(72.55 -84.59) rotate(26.08)" opacity="0.08"/><rect x="219.13" y="231.11" width="57.96" height="10.9" fill="#ededed"/><rect x="211.67" y="242" width="59.79" height="24.75" fill="#ededed"/><rect x="228.21" y="250.37" width="43.26" height="0.99" opacity="0.08"/><rect x="219.02" y="241.02" width="43.26" height="0.99" opacity="0.08"/><rect x="224.5" y="261.25" width="43.26" height="0.99" opacity="0.08"/><rect x="211.67" y="256" width="40.38" height="0.74" opacity="0.08"/><rect x="120.71" y="151.24" width="30.15" height="10.67" transform="translate(-46.1 57.22) rotate(-20.42)" fill="#24285b"/></svg>